# xmcd
#
# Track frame offsets:
#	150
#	13162
#	25111
#	38888
#	51824
#	64917
#	74957
#	87709
#	100944
#	113569
#	126245
#	138705
#	149526
#	159722
#	170562
#	181535
#	192202
#	202976
#	215367
#	227843
#	243136
#	252904
#	265573
#	277066
#
# Disc length: 3870 seconds
#
# Revision: 0
# Processed by: cddbd v1.5.2PL0 Copyright (c) Steve Scherf et al.
# Submitted via: audiograbber 1.83.01
#
DISCID=690f1c18
DTITLE=Howlin' Wolf - 3 Classic Albums Plus (1)
DYEAR=1962
DGENRE=Blues
TTITLE0=Moanin' At Midnight 
TTITLE1=How Many More Years 
TTITLE2=Smokestack Lightnin' 
TTITLE3=Baby, How Long 
TTITLE4=No Place To Go
TTITLE5=All Night Boogie 
TTITLE6=Evil
TTITLE7=I'm Leaving You 
TTITLE8=Meanin' For My Baby
TTITLE9=I Asked For Water (She Gave Me Gasoline)
TTITLE10=Forty-Four
TTITLE11=Somebody In My Home 
TTITLE12=Shake For Me 
TTITLE13=The Red Rooster 
TTITLE14=You'll Be Mine
TTITLE15=Who's Been Talkin' 
TTITLE16=Wang Dang Doodle 
TTITLE17=Little Baby 
TTITLE18=Spoonful
TTITLE19=Going Down Slow
TTITLE20=Down In The Bottom
TTITLE21=Back Door Man 
TTITLE22=Howlin' For My Baby 
TTITLE23=Tell Me
EXTD=
EXTT0=
EXTT1=
EXTT2=
EXTT3=
EXTT4=
EXTT5=
EXTT6=
EXTT7=
EXTT8=
EXTT9=
EXTT10=
EXTT11=
EXTT12=
EXTT13=
EXTT14=
EXTT15=
EXTT16=
EXTT17=
EXTT18=
EXTT19=
EXTT20=
EXTT21=
EXTT22=
EXTT23=
PLAYORDER=
